<svg xmlns="http://www.w3.org/2000/svg" viewBox="0 0 512 512" fill="none">
  <defs>
    <linearGradient id="bg" x1="0" y1="0" x2="1" y2="1">
      <stop offset="0%" stop-color="#1e3a5f"/>
      <stop offset="100%" stop-color="#0a1628"/>
    </linearGradient>
  </defs>
  <rect width="512" height="512" rx="64" fill="url(#bg)"/>
  <g transform="translate(256,256)">
    <!-- Shield -->
    <path d="M0-180 L140-100 L140 60 Q140 160 0 220 Q-140 160 -140 60 L-140-100 Z" 
          fill="none" stroke="#3b82f6" stroke-width="16" stroke-linejoin="round"/>
    <path d="M0-140 L100-80 L100 48 Q100 128 0 180 Q-100 128 -100 48 L-100-80 Z" 
          fill="none" stroke="#60a5fa" stroke-width="8" stroke-linejoin="round"/>
    <!-- Star -->
    <polygon points="0,-60 14,-20 56,-20 22,6 34,48 0,22 -34,48 -22,6 -56,-20 -14,-20" 
             fill="#fbbf24" opacity="0.9"/>
    <!-- Eye -->
    <circle cx="0" cy="10" r="12" fill="none" stroke="#fbbf24" stroke-width="3"/>
    <circle cx="0" cy="10" r="4" fill="#fbbf24"/>
  </g>
</svg>
